<mxfile host="app.diagrams.net" modified="2023-08-27T02:39:39.449Z" agent="Mozilla/5.0 (Windows NT 10.0; Win64; x64) AppleWebKit/537.36 (KHTML, like Gecko) Chrome/116.0.0.0 Safari/537.36" version="21.6.8" etag="r6lNp7y3iJUwiMTlV8GA" type="device" pages="5">
  <diagram id="boaOmOvMUXFfZGUbCkdN" name="Register">
    <mxGraphModel dx="1050" dy="581" grid="1" gridSize="10" guides="1" tooltips="1" connect="1" arrows="1" fold="1" page="1" pageScale="1" pageWidth="1169" pageHeight="827" math="0" shadow="0">
      <root>
        <mxCell id="0" />
        <mxCell id="1" parent="0" />
        <mxCell id="JjtmQo60yMseUKpq91H0-1" style="edgeStyle=orthogonalEdgeStyle;rounded=0;orthogonalLoop=1;jettySize=auto;html=1;strokeWidth=1;endArrow=open;endFill=0;fontSize=15;fontStyle=1;strokeColor=#000000;" edge="1" parent="1" source="JjtmQo60yMseUKpq91H0-2" target="JjtmQo60yMseUKpq91H0-15">
          <mxGeometry relative="1" as="geometry" />
        </mxCell>
        <mxCell id="JjtmQo60yMseUKpq91H0-2" value="Truy cập vào web" style="ellipse;shape=endState;fillColor=#000000;strokeColor=none;strokeWidth=1;verticalAlign=top;horizontal=1;labelPosition=center;verticalLabelPosition=bottom;align=center;labelBackgroundColor=none;labelBorderColor=none;html=1;spacing=0;fontSize=15;fontStyle=1" vertex="1" parent="1">
          <mxGeometry x="70" y="105" width="50" height="50" as="geometry" />
        </mxCell>
        <mxCell id="JjtmQo60yMseUKpq91H0-3" value="" style="edgeStyle=orthogonalEdgeStyle;rounded=0;orthogonalLoop=1;jettySize=auto;html=1;strokeWidth=1;endArrow=open;endFill=0;fontSize=15;fontStyle=1;strokeColor=#000000;" edge="1" parent="1" source="JjtmQo60yMseUKpq91H0-4" target="JjtmQo60yMseUKpq91H0-6">
          <mxGeometry relative="1" as="geometry" />
        </mxCell>
        <mxCell id="JjtmQo60yMseUKpq91H0-4" value="Nhấn đăng ký" style="rounded=1;whiteSpace=wrap;html=1;labelBackgroundColor=none;labelBorderColor=none;strokeWidth=1;fontSize=15;fontStyle=1;strokeColor=#000000;" vertex="1" parent="1">
          <mxGeometry x="320" y="100" width="120" height="60" as="geometry" />
        </mxCell>
        <mxCell id="JjtmQo60yMseUKpq91H0-5" value="" style="edgeStyle=orthogonalEdgeStyle;rounded=0;orthogonalLoop=1;jettySize=auto;html=1;strokeWidth=1;endArrow=open;endFill=0;fontSize=15;fontStyle=1;strokeColor=#000000;" edge="1" parent="1" source="JjtmQo60yMseUKpq91H0-6" target="JjtmQo60yMseUKpq91H0-8">
          <mxGeometry relative="1" as="geometry" />
        </mxCell>
        <mxCell id="JjtmQo60yMseUKpq91H0-6" value="View đăng ký" style="whiteSpace=wrap;html=1;rounded=1;labelBackgroundColor=none;labelBorderColor=none;strokeWidth=1;fontSize=15;fontStyle=1;strokeColor=#000000;" vertex="1" parent="1">
          <mxGeometry x="480" y="100" width="120" height="60" as="geometry" />
        </mxCell>
        <mxCell id="Z3L6M2ZY1MVFrVCpnj_z-3" style="edgeStyle=orthogonalEdgeStyle;rounded=0;orthogonalLoop=1;jettySize=auto;html=1;" edge="1" parent="1" source="JjtmQo60yMseUKpq91H0-8" target="Z3L6M2ZY1MVFrVCpnj_z-2">
          <mxGeometry relative="1" as="geometry" />
        </mxCell>
        <mxCell id="JjtmQo60yMseUKpq91H0-8" value="Nhập thông tin đăng ký" style="whiteSpace=wrap;html=1;rounded=1;labelBackgroundColor=none;labelBorderColor=none;strokeWidth=1;fontSize=15;fontStyle=1;strokeColor=#000000;" vertex="1" parent="1">
          <mxGeometry x="640" y="100" width="120" height="60" as="geometry" />
        </mxCell>
        <mxCell id="JjtmQo60yMseUKpq91H0-10" value="&lt;font style=&quot;font-size: 13px;&quot;&gt;No&lt;/font&gt;" style="edgeStyle=orthogonalEdgeStyle;rounded=0;orthogonalLoop=1;jettySize=auto;html=1;labelBackgroundColor=none;fontSize=15;fontColor=#ff0000;" edge="1" parent="1" source="JjtmQo60yMseUKpq91H0-11" target="JjtmQo60yMseUKpq91H0-17">
          <mxGeometry relative="1" as="geometry" />
        </mxCell>
        <mxCell id="JjtmQo60yMseUKpq91H0-20" style="edgeStyle=orthogonalEdgeStyle;rounded=0;orthogonalLoop=1;jettySize=auto;html=1;entryX=0.5;entryY=0;entryDx=0;entryDy=0;" edge="1" parent="1" source="JjtmQo60yMseUKpq91H0-11" target="JjtmQo60yMseUKpq91H0-13">
          <mxGeometry relative="1" as="geometry" />
        </mxCell>
        <mxCell id="K6HxzLG48xmiL8z_48bN-1" value="Yes" style="edgeLabel;html=1;align=center;verticalAlign=middle;resizable=0;points=[];fontSize=13;labelBackgroundColor=none;fontColor=#00FF00;" vertex="1" connectable="0" parent="JjtmQo60yMseUKpq91H0-20">
          <mxGeometry x="-0.76" relative="1" as="geometry">
            <mxPoint as="offset" />
          </mxGeometry>
        </mxCell>
        <mxCell id="JjtmQo60yMseUKpq91H0-11" value="Kiểu tra &lt;br&gt;dữ liệu" style="rhombus;whiteSpace=wrap;html=1;rounded=1;labelBackgroundColor=none;labelBorderColor=none;strokeWidth=1;spacing=0;spacingBottom=70;labelPosition=right;verticalLabelPosition=middle;align=left;verticalAlign=middle;spacingTop=0;fontSize=15;fontStyle=1;strokeColor=#000000;spacingLeft=-20;arcSize=18;" vertex="1" parent="1">
          <mxGeometry x="800" y="195" width="120" height="65" as="geometry" />
        </mxCell>
        <mxCell id="JjtmQo60yMseUKpq91H0-21" style="edgeStyle=orthogonalEdgeStyle;rounded=0;orthogonalLoop=1;jettySize=auto;html=1;entryX=0.5;entryY=0;entryDx=0;entryDy=0;" edge="1" parent="1" source="JjtmQo60yMseUKpq91H0-13" target="JjtmQo60yMseUKpq91H0-19">
          <mxGeometry relative="1" as="geometry" />
        </mxCell>
        <mxCell id="JjtmQo60yMseUKpq91H0-13" value="Đăng ký thành công" style="rounded=1;whiteSpace=wrap;html=1;labelBackgroundColor=none;labelBorderColor=none;strokeWidth=1;fontSize=15;fontStyle=1;strokeColor=#000000;" vertex="1" parent="1">
          <mxGeometry x="800" y="300" width="120" height="60" as="geometry" />
        </mxCell>
        <mxCell id="JjtmQo60yMseUKpq91H0-14" style="edgeStyle=orthogonalEdgeStyle;rounded=0;orthogonalLoop=1;jettySize=auto;html=1;entryX=0;entryY=0.5;entryDx=0;entryDy=0;strokeWidth=1;endArrow=open;endFill=0;fontSize=15;fontStyle=1;strokeColor=#000000;" edge="1" parent="1" source="JjtmQo60yMseUKpq91H0-15" target="JjtmQo60yMseUKpq91H0-4">
          <mxGeometry relative="1" as="geometry" />
        </mxCell>
        <mxCell id="JjtmQo60yMseUKpq91H0-15" value="View trang chủ" style="rounded=1;whiteSpace=wrap;html=1;labelBackgroundColor=none;labelBorderColor=none;strokeWidth=1;fontSize=15;fontStyle=1;strokeColor=#000000;" vertex="1" parent="1">
          <mxGeometry x="160" y="100" width="120" height="60" as="geometry" />
        </mxCell>
        <mxCell id="JjtmQo60yMseUKpq91H0-16" style="edgeStyle=orthogonalEdgeStyle;rounded=0;orthogonalLoop=1;jettySize=auto;html=1;entryX=0.5;entryY=1;entryDx=0;entryDy=0;labelBackgroundColor=none;fontSize=15;fontColor=#FF0808;" edge="1" parent="1" source="JjtmQo60yMseUKpq91H0-17" target="JjtmQo60yMseUKpq91H0-6">
          <mxGeometry relative="1" as="geometry" />
        </mxCell>
        <mxCell id="JjtmQo60yMseUKpq91H0-17" value="Đăng ký thất bại" style="rounded=1;whiteSpace=wrap;html=1;labelBackgroundColor=none;labelBorderColor=none;strokeWidth=1;gradientColor=none;fontSize=15;fontStyle=1;strokeColor=#000000;" vertex="1" parent="1">
          <mxGeometry x="480" y="197.5" width="120" height="60" as="geometry" />
        </mxCell>
        <mxCell id="JjtmQo60yMseUKpq91H0-18" style="edgeStyle=orthogonalEdgeStyle;rounded=0;orthogonalLoop=1;jettySize=auto;html=1;entryX=0.5;entryY=1;entryDx=0;entryDy=0;labelBackgroundColor=none;fontSize=15;fontColor=#FF0808;" edge="1" parent="1" source="JjtmQo60yMseUKpq91H0-19" target="JjtmQo60yMseUKpq91H0-15">
          <mxGeometry relative="1" as="geometry" />
        </mxCell>
        <mxCell id="JjtmQo60yMseUKpq91H0-19" value="Hoàn thành" style="ellipse;html=1;shape=endState;fillColor=#000000;strokeColor=#ff0000;rounded=0;labelBackgroundColor=none;labelBorderColor=none;strokeWidth=3;labelPosition=center;verticalLabelPosition=bottom;align=center;verticalAlign=top;gradientColor=none;fontSize=15;fontStyle=1" vertex="1" parent="1">
          <mxGeometry x="836.25" y="400" width="47.5" height="50" as="geometry" />
        </mxCell>
        <mxCell id="Z3L6M2ZY1MVFrVCpnj_z-4" style="edgeStyle=orthogonalEdgeStyle;rounded=0;orthogonalLoop=1;jettySize=auto;html=1;" edge="1" parent="1" source="Z3L6M2ZY1MVFrVCpnj_z-2" target="JjtmQo60yMseUKpq91H0-11">
          <mxGeometry relative="1" as="geometry" />
        </mxCell>
        <mxCell id="Z3L6M2ZY1MVFrVCpnj_z-2" value="Nhấn đăng ký" style="whiteSpace=wrap;html=1;rounded=1;labelBackgroundColor=none;labelBorderColor=none;strokeWidth=1;fontSize=15;fontStyle=1;strokeColor=#000000;" vertex="1" parent="1">
          <mxGeometry x="800" y="100" width="120" height="60" as="geometry" />
        </mxCell>
      </root>
    </mxGraphModel>
  </diagram>
  <diagram id="gkiEzR18TdtZ2ZzWs8F_" name="Login">
    <mxGraphModel dx="1050" dy="581" grid="1" gridSize="10" guides="1" tooltips="1" connect="1" arrows="1" fold="1" page="1" pageScale="1" pageWidth="1169" pageHeight="827" math="0" shadow="0">
      <root>
        <mxCell id="0" />
        <mxCell id="1" parent="0" />
        <mxCell id="kZ1qPgRfmB5mzFxidaCw-1" style="edgeStyle=orthogonalEdgeStyle;rounded=0;orthogonalLoop=1;jettySize=auto;html=1;strokeWidth=1;endArrow=open;endFill=0;fontSize=15;fontStyle=1;strokeColor=#000000;" edge="1" parent="1" source="kZ1qPgRfmB5mzFxidaCw-2" target="kZ1qPgRfmB5mzFxidaCw-16">
          <mxGeometry relative="1" as="geometry" />
        </mxCell>
        <mxCell id="kZ1qPgRfmB5mzFxidaCw-2" value="Truy cập vào web&lt;br&gt;" style="ellipse;shape=endState;fillColor=#000000;strokeColor=none;strokeWidth=1;verticalAlign=top;horizontal=1;labelPosition=center;verticalLabelPosition=bottom;align=center;labelBackgroundColor=none;labelBorderColor=none;html=1;spacing=0;fontSize=15;fontStyle=1" vertex="1" parent="1">
          <mxGeometry x="70" y="105" width="50" height="50" as="geometry" />
        </mxCell>
        <mxCell id="SzOQUrTTK7H0UwViaEnT-2" style="edgeStyle=orthogonalEdgeStyle;rounded=0;orthogonalLoop=1;jettySize=auto;html=1;" edge="1" parent="1" source="kZ1qPgRfmB5mzFxidaCw-4" target="SzOQUrTTK7H0UwViaEnT-1">
          <mxGeometry relative="1" as="geometry" />
        </mxCell>
        <mxCell id="kZ1qPgRfmB5mzFxidaCw-4" value="Nhấn đăng nhập" style="rounded=1;whiteSpace=wrap;html=1;labelBackgroundColor=none;labelBorderColor=none;strokeWidth=1;fontSize=15;fontStyle=1;strokeColor=#000000;" vertex="1" parent="1">
          <mxGeometry x="320" y="100" width="120" height="60" as="geometry" />
        </mxCell>
        <mxCell id="nTHSPU4McxoSr2Gob0cS-3" style="edgeStyle=orthogonalEdgeStyle;rounded=0;orthogonalLoop=1;jettySize=auto;html=1;" edge="1" parent="1" source="kZ1qPgRfmB5mzFxidaCw-6" target="nTHSPU4McxoSr2Gob0cS-2">
          <mxGeometry relative="1" as="geometry" />
        </mxCell>
        <mxCell id="kZ1qPgRfmB5mzFxidaCw-6" value="Nhập email, mật khẩu" style="whiteSpace=wrap;html=1;rounded=1;labelBackgroundColor=none;labelBorderColor=none;strokeWidth=1;fontSize=15;fontStyle=1;strokeColor=#000000;" vertex="1" parent="1">
          <mxGeometry x="640" y="100" width="120" height="60" as="geometry" />
        </mxCell>
        <mxCell id="kZ1qPgRfmB5mzFxidaCw-7" value="Yes" style="edgeStyle=orthogonalEdgeStyle;rounded=0;orthogonalLoop=1;jettySize=auto;html=1;strokeWidth=1;endArrow=open;endFill=0;fontSize=15;fontStyle=0;strokeColor=#000000;labelBackgroundColor=none;fontColor=#ff0000;" edge="1" parent="1" source="kZ1qPgRfmB5mzFxidaCw-9" target="kZ1qPgRfmB5mzFxidaCw-11">
          <mxGeometry relative="1" as="geometry" />
        </mxCell>
        <mxCell id="kZ1qPgRfmB5mzFxidaCw-8" value="No" style="edgeStyle=orthogonalEdgeStyle;rounded=0;orthogonalLoop=1;jettySize=auto;html=1;fontSize=15;fontStyle=0;fontColor=#ff0000;" edge="1" parent="1" source="kZ1qPgRfmB5mzFxidaCw-9" target="kZ1qPgRfmB5mzFxidaCw-18">
          <mxGeometry relative="1" as="geometry" />
        </mxCell>
        <mxCell id="kZ1qPgRfmB5mzFxidaCw-9" value="Kiểm tra &lt;br&gt;thông tin" style="rhombus;whiteSpace=wrap;html=1;rounded=1;labelBackgroundColor=none;labelBorderColor=none;strokeWidth=1;spacing=0;spacingBottom=0;labelPosition=right;verticalLabelPosition=bottom;align=left;verticalAlign=top;spacingTop=-35;fontSize=15;fontStyle=1;strokeColor=#000000;spacingRight=0;arcSize=26;" vertex="1" parent="1">
          <mxGeometry x="800" y="200" width="120" height="60" as="geometry" />
        </mxCell>
        <mxCell id="N1QxybM127vmTPBHIpBY-2" style="edgeStyle=orthogonalEdgeStyle;rounded=0;orthogonalLoop=1;jettySize=auto;html=1;" edge="1" parent="1" source="kZ1qPgRfmB5mzFxidaCw-11" target="kZ1qPgRfmB5mzFxidaCw-14">
          <mxGeometry relative="1" as="geometry" />
        </mxCell>
        <mxCell id="kZ1qPgRfmB5mzFxidaCw-11" value="Đăng nhập thành công" style="rounded=1;whiteSpace=wrap;html=1;labelBackgroundColor=none;labelBorderColor=none;strokeWidth=1;fontSize=15;fontStyle=1;strokeColor=#000000;" vertex="1" parent="1">
          <mxGeometry x="800" y="300" width="120" height="60" as="geometry" />
        </mxCell>
        <mxCell id="N1QxybM127vmTPBHIpBY-4" style="edgeStyle=orthogonalEdgeStyle;rounded=0;orthogonalLoop=1;jettySize=auto;html=1;" edge="1" parent="1" source="kZ1qPgRfmB5mzFxidaCw-14" target="kZ1qPgRfmB5mzFxidaCw-16">
          <mxGeometry relative="1" as="geometry" />
        </mxCell>
        <mxCell id="kZ1qPgRfmB5mzFxidaCw-14" value="Hoàn thành" style="ellipse;html=1;shape=endState;fillColor=#000000;strokeColor=#ff0000;rounded=0;labelBackgroundColor=none;labelBorderColor=none;strokeWidth=3;labelPosition=center;verticalLabelPosition=bottom;align=center;verticalAlign=top;gradientColor=none;fontSize=15;fontStyle=1" vertex="1" parent="1">
          <mxGeometry x="836.25" y="400" width="47.5" height="50" as="geometry" />
        </mxCell>
        <mxCell id="kZ1qPgRfmB5mzFxidaCw-15" style="edgeStyle=orthogonalEdgeStyle;rounded=0;orthogonalLoop=1;jettySize=auto;html=1;entryX=0;entryY=0.5;entryDx=0;entryDy=0;strokeWidth=1;endArrow=open;endFill=0;fontSize=15;fontStyle=1;strokeColor=#000000;" edge="1" parent="1" source="kZ1qPgRfmB5mzFxidaCw-16" target="kZ1qPgRfmB5mzFxidaCw-4">
          <mxGeometry relative="1" as="geometry" />
        </mxCell>
        <mxCell id="kZ1qPgRfmB5mzFxidaCw-16" value="View trang chủ" style="rounded=1;whiteSpace=wrap;html=1;labelBackgroundColor=none;labelBorderColor=none;strokeWidth=1;fontSize=15;fontStyle=1;strokeColor=#000000;" vertex="1" parent="1">
          <mxGeometry x="160" y="100" width="120" height="60" as="geometry" />
        </mxCell>
        <mxCell id="SzOQUrTTK7H0UwViaEnT-5" style="edgeStyle=orthogonalEdgeStyle;rounded=0;orthogonalLoop=1;jettySize=auto;html=1;entryX=0.5;entryY=1;entryDx=0;entryDy=0;" edge="1" parent="1" source="kZ1qPgRfmB5mzFxidaCw-18" target="SzOQUrTTK7H0UwViaEnT-1">
          <mxGeometry relative="1" as="geometry" />
        </mxCell>
        <mxCell id="kZ1qPgRfmB5mzFxidaCw-18" value="Đăng nhập thất bại" style="rounded=1;whiteSpace=wrap;html=1;labelBackgroundColor=none;labelBorderColor=none;strokeWidth=1;gradientColor=none;fontSize=15;fontStyle=1;strokeColor=#000000;" vertex="1" parent="1">
          <mxGeometry x="480" y="210" width="120" height="60" as="geometry" />
        </mxCell>
        <mxCell id="SzOQUrTTK7H0UwViaEnT-4" style="edgeStyle=orthogonalEdgeStyle;rounded=0;orthogonalLoop=1;jettySize=auto;html=1;" edge="1" parent="1" source="SzOQUrTTK7H0UwViaEnT-1" target="kZ1qPgRfmB5mzFxidaCw-6">
          <mxGeometry relative="1" as="geometry" />
        </mxCell>
        <mxCell id="SzOQUrTTK7H0UwViaEnT-1" value="View đăng nhập" style="rounded=1;whiteSpace=wrap;html=1;labelBackgroundColor=none;labelBorderColor=none;strokeWidth=1;fontSize=15;fontStyle=1;strokeColor=#000000;" vertex="1" parent="1">
          <mxGeometry x="480" y="100" width="120" height="60" as="geometry" />
        </mxCell>
        <mxCell id="UX1LG43zVGuIpRb7CIom-1" style="edgeStyle=orthogonalEdgeStyle;rounded=0;orthogonalLoop=1;jettySize=auto;html=1;" edge="1" parent="1" source="nTHSPU4McxoSr2Gob0cS-2" target="kZ1qPgRfmB5mzFxidaCw-9">
          <mxGeometry relative="1" as="geometry" />
        </mxCell>
        <mxCell id="nTHSPU4McxoSr2Gob0cS-2" value="Nhấn đăng nhập" style="whiteSpace=wrap;html=1;rounded=1;labelBackgroundColor=none;labelBorderColor=none;strokeWidth=1;fontSize=15;fontStyle=1;strokeColor=#000000;" vertex="1" parent="1">
          <mxGeometry x="800" y="100" width="120" height="60" as="geometry" />
        </mxCell>
      </root>
    </mxGraphModel>
  </diagram>
  <diagram id="o4x-Nlnioz1JuQUdTAuz" name="Order">
    <mxGraphModel dx="1050" dy="581" grid="1" gridSize="10" guides="1" tooltips="1" connect="1" arrows="1" fold="1" page="1" pageScale="1" pageWidth="1169" pageHeight="827" math="0" shadow="0">
      <root>
        <mxCell id="0" />
        <mxCell id="1" parent="0" />
        <mxCell id="NgVqvinE2vjbf4r6fnTB-29" style="edgeStyle=orthogonalEdgeStyle;rounded=0;orthogonalLoop=1;jettySize=auto;html=1;" edge="1" parent="1" source="NgVqvinE2vjbf4r6fnTB-2" target="NgVqvinE2vjbf4r6fnTB-4">
          <mxGeometry relative="1" as="geometry" />
        </mxCell>
        <mxCell id="NgVqvinE2vjbf4r6fnTB-2" value="Truy cập vào web&lt;br&gt;" style="ellipse;shape=endState;fillColor=#000000;strokeColor=none;strokeWidth=1;verticalAlign=top;horizontal=1;labelPosition=center;verticalLabelPosition=bottom;align=center;labelBackgroundColor=none;labelBorderColor=none;html=1;spacing=0;fontSize=15;fontStyle=1" vertex="1" parent="1">
          <mxGeometry x="70" y="105" width="50" height="50" as="geometry" />
        </mxCell>
        <mxCell id="NgVqvinE2vjbf4r6fnTB-3" style="edgeStyle=orthogonalEdgeStyle;rounded=0;orthogonalLoop=1;jettySize=auto;html=1;fontSize=15;fontColor=#ff0000;" edge="1" parent="1" source="NgVqvinE2vjbf4r6fnTB-4" target="NgVqvinE2vjbf4r6fnTB-9">
          <mxGeometry relative="1" as="geometry" />
        </mxCell>
        <mxCell id="NgVqvinE2vjbf4r6fnTB-4" value="View trang chủ" style="whiteSpace=wrap;html=1;rounded=1;labelBackgroundColor=none;labelBorderColor=none;strokeWidth=1;fontSize=15;fontStyle=1;strokeColor=#000000;" vertex="1" parent="1">
          <mxGeometry x="160" y="100" width="120" height="60" as="geometry" />
        </mxCell>
        <mxCell id="FO_ZrZkZDhoLAKDMdgf0-4" style="edgeStyle=orthogonalEdgeStyle;rounded=0;orthogonalLoop=1;jettySize=auto;html=1;" edge="1" parent="1" source="NgVqvinE2vjbf4r6fnTB-5" target="FO_ZrZkZDhoLAKDMdgf0-3">
          <mxGeometry relative="1" as="geometry" />
        </mxCell>
        <mxCell id="NgVqvinE2vjbf4r6fnTB-5" value="Hoàn thành" style="ellipse;html=1;shape=endState;fillColor=#000000;strokeColor=#ff0000;rounded=0;labelBackgroundColor=none;labelBorderColor=none;strokeWidth=3;labelPosition=center;verticalLabelPosition=bottom;align=center;verticalAlign=top;gradientColor=none;fontSize=15;fontStyle=1" vertex="1" parent="1">
          <mxGeometry x="996.25" y="500" width="47.5" height="50" as="geometry" />
        </mxCell>
        <mxCell id="NgVqvinE2vjbf4r6fnTB-8" value="" style="edgeStyle=orthogonalEdgeStyle;rounded=0;orthogonalLoop=1;jettySize=auto;html=1;labelBackgroundColor=none;fontSize=15;fontColor=#ff0000;" edge="1" parent="1" source="NgVqvinE2vjbf4r6fnTB-9" target="NgVqvinE2vjbf4r6fnTB-26">
          <mxGeometry relative="1" as="geometry" />
        </mxCell>
        <mxCell id="NgVqvinE2vjbf4r6fnTB-9" value="Nhấn giỏ hàng" style="rounded=1;whiteSpace=wrap;html=1;labelBackgroundColor=none;labelBorderColor=none;strokeWidth=1;gradientColor=none;fontSize=15;fontStyle=1;strokeColor=#000000;" vertex="1" parent="1">
          <mxGeometry x="320" y="100" width="120" height="60" as="geometry" />
        </mxCell>
        <mxCell id="NgVqvinE2vjbf4r6fnTB-14" value="" style="edgeStyle=orthogonalEdgeStyle;rounded=0;orthogonalLoop=1;jettySize=auto;html=1;labelBackgroundColor=none;fontSize=15;fontColor=#ff0000;" edge="1" parent="1" source="NgVqvinE2vjbf4r6fnTB-15" target="NgVqvinE2vjbf4r6fnTB-17">
          <mxGeometry relative="1" as="geometry" />
        </mxCell>
        <mxCell id="NgVqvinE2vjbf4r6fnTB-15" value="Nhấn thanh toán" style="whiteSpace=wrap;html=1;fontSize=15;strokeColor=#000000;rounded=1;labelBackgroundColor=none;labelBorderColor=none;strokeWidth=1;gradientColor=none;fontStyle=1;" vertex="1" parent="1">
          <mxGeometry x="640" y="100" width="120" height="60" as="geometry" />
        </mxCell>
        <mxCell id="NgVqvinE2vjbf4r6fnTB-16" style="edgeStyle=orthogonalEdgeStyle;rounded=0;orthogonalLoop=1;jettySize=auto;html=1;labelBackgroundColor=none;fontSize=15;fontColor=#ff0000;" edge="1" parent="1" source="NgVqvinE2vjbf4r6fnTB-17" target="NgVqvinE2vjbf4r6fnTB-19">
          <mxGeometry relative="1" as="geometry" />
        </mxCell>
        <mxCell id="NgVqvinE2vjbf4r6fnTB-17" value="View đặt hàng" style="whiteSpace=wrap;html=1;fontSize=15;strokeColor=#000000;rounded=1;labelBackgroundColor=none;labelBorderColor=none;strokeWidth=1;gradientColor=none;fontStyle=1;" vertex="1" parent="1">
          <mxGeometry x="800" y="100" width="120" height="60" as="geometry" />
        </mxCell>
        <mxCell id="lIuFoo4xO3HiAsFG7bw--2" style="edgeStyle=orthogonalEdgeStyle;rounded=0;orthogonalLoop=1;jettySize=auto;html=1;" edge="1" parent="1" source="NgVqvinE2vjbf4r6fnTB-19" target="lIuFoo4xO3HiAsFG7bw--1">
          <mxGeometry relative="1" as="geometry" />
        </mxCell>
        <mxCell id="NgVqvinE2vjbf4r6fnTB-19" value="Nhập thông tin&amp;nbsp;" style="whiteSpace=wrap;html=1;fontSize=15;strokeColor=#000000;rounded=1;labelBackgroundColor=none;labelBorderColor=none;strokeWidth=1;gradientColor=none;fontStyle=1;fontColor=#000000;" vertex="1" parent="1">
          <mxGeometry x="960" y="100" width="120" height="60" as="geometry" />
        </mxCell>
        <mxCell id="NgVqvinE2vjbf4r6fnTB-21" value="&lt;font color=&quot;#33ff33&quot;&gt;Yes&lt;/font&gt;" style="edgeStyle=orthogonalEdgeStyle;rounded=0;orthogonalLoop=1;jettySize=auto;html=1;labelBackgroundColor=none;fontSize=15;fontColor=#FF0808;" edge="1" parent="1" source="NgVqvinE2vjbf4r6fnTB-22" target="NgVqvinE2vjbf4r6fnTB-28">
          <mxGeometry relative="1" as="geometry" />
        </mxCell>
        <mxCell id="FO_ZrZkZDhoLAKDMdgf0-5" style="edgeStyle=orthogonalEdgeStyle;rounded=0;orthogonalLoop=1;jettySize=auto;html=1;" edge="1" parent="1" source="NgVqvinE2vjbf4r6fnTB-22" target="NgVqvinE2vjbf4r6fnTB-24">
          <mxGeometry relative="1" as="geometry" />
        </mxCell>
        <mxCell id="FO_ZrZkZDhoLAKDMdgf0-6" value="&lt;font style=&quot;font-size: 15px;&quot;&gt;No&lt;/font&gt;" style="edgeLabel;html=1;align=center;verticalAlign=middle;resizable=0;points=[];labelBackgroundColor=none;fontColor=#FF0000;fontSize=15;" vertex="1" connectable="0" parent="FO_ZrZkZDhoLAKDMdgf0-5">
          <mxGeometry x="0.5061" y="-3" relative="1" as="geometry">
            <mxPoint y="1" as="offset" />
          </mxGeometry>
        </mxCell>
        <mxCell id="FO_ZrZkZDhoLAKDMdgf0-7" value="" style="edgeStyle=orthogonalEdgeStyle;rounded=0;orthogonalLoop=1;jettySize=auto;html=1;" edge="1" parent="1" source="NgVqvinE2vjbf4r6fnTB-22" target="NgVqvinE2vjbf4r6fnTB-28">
          <mxGeometry relative="1" as="geometry" />
        </mxCell>
        <mxCell id="NgVqvinE2vjbf4r6fnTB-22" value="Kiểm tra&amp;nbsp;&lt;br&gt;dữ liệu" style="rhombus;whiteSpace=wrap;html=1;rounded=1;labelBackgroundColor=none;labelBorderColor=none;strokeWidth=1;spacing=0;spacingBottom=20;labelPosition=right;verticalLabelPosition=bottom;align=left;verticalAlign=top;spacingTop=-20;fontSize=15;fontStyle=1;strokeColor=#000000;spacingRight=0;spacingLeft=-34;" vertex="1" parent="1">
          <mxGeometry x="960" y="300" width="120" height="60" as="geometry" />
        </mxCell>
        <mxCell id="Ape1EmuWP50VygmUdvHK-1" style="edgeStyle=orthogonalEdgeStyle;rounded=0;orthogonalLoop=1;jettySize=auto;html=1;" edge="1" parent="1" source="NgVqvinE2vjbf4r6fnTB-24" target="NgVqvinE2vjbf4r6fnTB-17">
          <mxGeometry relative="1" as="geometry" />
        </mxCell>
        <mxCell id="NgVqvinE2vjbf4r6fnTB-24" value="Đặt hàng thất bại&amp;nbsp;" style="whiteSpace=wrap;html=1;fontSize=15;strokeColor=#000000;rounded=1;labelBackgroundColor=none;labelBorderColor=none;strokeWidth=1;gradientColor=none;fontStyle=1;fontColor=#000000;" vertex="1" parent="1">
          <mxGeometry x="800" y="300" width="120" height="60" as="geometry" />
        </mxCell>
        <mxCell id="NgVqvinE2vjbf4r6fnTB-25" style="edgeStyle=orthogonalEdgeStyle;rounded=0;orthogonalLoop=1;jettySize=auto;html=1;labelBackgroundColor=none;fontSize=15;fontColor=#ff0000;" edge="1" parent="1" source="NgVqvinE2vjbf4r6fnTB-26" target="NgVqvinE2vjbf4r6fnTB-15">
          <mxGeometry relative="1" as="geometry" />
        </mxCell>
        <mxCell id="NgVqvinE2vjbf4r6fnTB-26" value="View giỏ hàng" style="whiteSpace=wrap;html=1;fontSize=15;strokeColor=#000000;rounded=1;labelBackgroundColor=none;labelBorderColor=none;strokeWidth=1;gradientColor=none;fontStyle=1;" vertex="1" parent="1">
          <mxGeometry x="480" y="100" width="120" height="60" as="geometry" />
        </mxCell>
        <mxCell id="NgVqvinE2vjbf4r6fnTB-27" style="edgeStyle=orthogonalEdgeStyle;rounded=0;orthogonalLoop=1;jettySize=auto;html=1;labelBackgroundColor=none;fontSize=15;fontColor=#FF0808;" edge="1" parent="1" source="NgVqvinE2vjbf4r6fnTB-28" target="NgVqvinE2vjbf4r6fnTB-5">
          <mxGeometry relative="1" as="geometry" />
        </mxCell>
        <mxCell id="NgVqvinE2vjbf4r6fnTB-28" value="Đặt hàng thành công" style="whiteSpace=wrap;html=1;fontSize=15;align=center;verticalAlign=middle;strokeColor=#000000;rounded=1;labelBackgroundColor=none;labelBorderColor=none;strokeWidth=1;spacing=0;spacingBottom=0;spacingTop=0;fontStyle=1;spacingRight=0;spacingLeft=0;" vertex="1" parent="1">
          <mxGeometry x="960" y="400" width="120" height="60" as="geometry" />
        </mxCell>
        <mxCell id="FO_ZrZkZDhoLAKDMdgf0-3" value="View thông báo" style="whiteSpace=wrap;html=1;rounded=1;labelBackgroundColor=none;labelBorderColor=none;strokeWidth=1;fontSize=15;fontStyle=1;strokeColor=#000000;" vertex="1" parent="1">
          <mxGeometry x="320" y="495" width="120" height="60" as="geometry" />
        </mxCell>
        <mxCell id="lIuFoo4xO3HiAsFG7bw--3" style="edgeStyle=orthogonalEdgeStyle;rounded=0;orthogonalLoop=1;jettySize=auto;html=1;" edge="1" parent="1" source="lIuFoo4xO3HiAsFG7bw--1" target="NgVqvinE2vjbf4r6fnTB-22">
          <mxGeometry relative="1" as="geometry" />
        </mxCell>
        <mxCell id="lIuFoo4xO3HiAsFG7bw--1" value="Nhấn đặt hàng" style="whiteSpace=wrap;html=1;fontSize=15;strokeColor=#000000;rounded=1;labelBackgroundColor=none;labelBorderColor=none;strokeWidth=1;gradientColor=none;fontStyle=1;fontColor=#000000;" vertex="1" parent="1">
          <mxGeometry x="960" y="200" width="120" height="60" as="geometry" />
        </mxCell>
      </root>
    </mxGraphModel>
  </diagram>
  <diagram id="RBFNw8w5jwzd7uUHcIAo" name="Update Profile">
    <mxGraphModel dx="1050" dy="581" grid="1" gridSize="10" guides="1" tooltips="1" connect="1" arrows="1" fold="1" page="1" pageScale="1" pageWidth="1169" pageHeight="827" math="0" shadow="0">
      <root>
        <mxCell id="0" />
        <mxCell id="1" parent="0" />
        <mxCell id="UTohmlkJVf-nrCphHJ6n-33" style="edgeStyle=orthogonalEdgeStyle;rounded=0;orthogonalLoop=1;jettySize=auto;html=1;" edge="1" parent="1" source="UTohmlkJVf-nrCphHJ6n-2" target="UTohmlkJVf-nrCphHJ6n-4">
          <mxGeometry relative="1" as="geometry" />
        </mxCell>
        <mxCell id="UTohmlkJVf-nrCphHJ6n-2" value="Mở ứng dụng" style="ellipse;shape=endState;fillColor=#000000;strokeColor=none;strokeWidth=1;verticalAlign=top;horizontal=1;labelPosition=center;verticalLabelPosition=bottom;align=center;labelBackgroundColor=none;labelBorderColor=none;html=1;spacing=0;fontSize=15;fontStyle=1" vertex="1" parent="1">
          <mxGeometry x="70" y="105" width="50" height="50" as="geometry" />
        </mxCell>
        <mxCell id="UTohmlkJVf-nrCphHJ6n-3" style="edgeStyle=orthogonalEdgeStyle;rounded=0;orthogonalLoop=1;jettySize=auto;html=1;fontSize=15;fontColor=#ff0000;" edge="1" parent="1" source="UTohmlkJVf-nrCphHJ6n-4" target="UTohmlkJVf-nrCphHJ6n-10">
          <mxGeometry relative="1" as="geometry" />
        </mxCell>
        <mxCell id="UTohmlkJVf-nrCphHJ6n-4" value="View trang chủ" style="whiteSpace=wrap;html=1;rounded=1;labelBackgroundColor=none;labelBorderColor=none;strokeWidth=1;fontSize=15;fontStyle=1;strokeColor=#000000;" vertex="1" parent="1">
          <mxGeometry x="160" y="100" width="120" height="60" as="geometry" />
        </mxCell>
        <mxCell id="FETi66UspcrbTtxn0EUh-6" style="edgeStyle=orthogonalEdgeStyle;rounded=0;orthogonalLoop=1;jettySize=auto;html=1;" edge="1" parent="1" source="UTohmlkJVf-nrCphHJ6n-6" target="UTohmlkJVf-nrCphHJ6n-18">
          <mxGeometry relative="1" as="geometry" />
        </mxCell>
        <mxCell id="UTohmlkJVf-nrCphHJ6n-6" value="Hoàn thành" style="ellipse;html=1;shape=endState;fillColor=#000000;strokeColor=#ff0000;rounded=0;labelBackgroundColor=none;labelBorderColor=none;strokeWidth=3;labelPosition=center;verticalLabelPosition=bottom;align=center;verticalAlign=top;gradientColor=none;fontSize=15;fontStyle=1" vertex="1" parent="1">
          <mxGeometry x="836.25" y="700" width="47.5" height="50" as="geometry" />
        </mxCell>
        <mxCell id="UTohmlkJVf-nrCphHJ6n-9" value="" style="edgeStyle=orthogonalEdgeStyle;rounded=0;orthogonalLoop=1;jettySize=auto;html=1;labelBackgroundColor=none;fontSize=15;fontColor=#ff0000;" edge="1" parent="1" source="UTohmlkJVf-nrCphHJ6n-10" target="UTohmlkJVf-nrCphHJ6n-16">
          <mxGeometry relative="1" as="geometry" />
        </mxCell>
        <mxCell id="UTohmlkJVf-nrCphHJ6n-10" value="Nhấn tài khoản" style="rounded=1;whiteSpace=wrap;html=1;labelBackgroundColor=none;labelBorderColor=none;strokeWidth=1;gradientColor=none;fontSize=15;fontStyle=1;strokeColor=#000000;" vertex="1" parent="1">
          <mxGeometry x="320" y="100" width="120" height="60" as="geometry" />
        </mxCell>
        <mxCell id="UTohmlkJVf-nrCphHJ6n-15" value="" style="edgeStyle=orthogonalEdgeStyle;rounded=0;orthogonalLoop=1;jettySize=auto;html=1;labelBackgroundColor=none;fontSize=15;fontColor=#ff0000;" edge="1" parent="1" source="UTohmlkJVf-nrCphHJ6n-16" target="UTohmlkJVf-nrCphHJ6n-18">
          <mxGeometry relative="1" as="geometry" />
        </mxCell>
        <mxCell id="UTohmlkJVf-nrCphHJ6n-16" value="Nhấn hồ sơ" style="whiteSpace=wrap;html=1;fontSize=15;strokeColor=#000000;rounded=1;labelBackgroundColor=none;labelBorderColor=none;strokeWidth=1;gradientColor=none;fontStyle=1;" vertex="1" parent="1">
          <mxGeometry x="480" y="100" width="120" height="60" as="geometry" />
        </mxCell>
        <mxCell id="UTohmlkJVf-nrCphHJ6n-17" value="" style="edgeStyle=orthogonalEdgeStyle;rounded=0;orthogonalLoop=1;jettySize=auto;html=1;labelBackgroundColor=none;fontSize=15;fontColor=#ff0000;" edge="1" parent="1" source="UTohmlkJVf-nrCphHJ6n-18" target="UTohmlkJVf-nrCphHJ6n-20">
          <mxGeometry relative="1" as="geometry" />
        </mxCell>
        <mxCell id="UTohmlkJVf-nrCphHJ6n-18" value="View hồ sơ" style="whiteSpace=wrap;html=1;fontSize=15;strokeColor=#000000;rounded=1;labelBackgroundColor=none;labelBorderColor=none;strokeWidth=1;gradientColor=none;fontStyle=1;" vertex="1" parent="1">
          <mxGeometry x="640" y="100" width="120" height="60" as="geometry" />
        </mxCell>
        <mxCell id="UTohmlkJVf-nrCphHJ6n-19" value="" style="edgeStyle=orthogonalEdgeStyle;rounded=0;orthogonalLoop=1;jettySize=auto;html=1;labelBackgroundColor=none;fontSize=15;fontColor=#ff0000;" edge="1" parent="1" source="UTohmlkJVf-nrCphHJ6n-20" target="UTohmlkJVf-nrCphHJ6n-22">
          <mxGeometry relative="1" as="geometry" />
        </mxCell>
        <mxCell id="UTohmlkJVf-nrCphHJ6n-20" value="Nhấn cập nhật" style="whiteSpace=wrap;html=1;fontSize=15;strokeColor=#000000;rounded=1;labelBackgroundColor=none;labelBorderColor=none;strokeWidth=1;gradientColor=none;fontStyle=1;" vertex="1" parent="1">
          <mxGeometry x="800" y="100" width="120" height="60" as="geometry" />
        </mxCell>
        <mxCell id="UTohmlkJVf-nrCphHJ6n-21" style="edgeStyle=orthogonalEdgeStyle;rounded=0;orthogonalLoop=1;jettySize=auto;html=1;labelBackgroundColor=none;fontSize=15;fontColor=default;" edge="1" parent="1" source="UTohmlkJVf-nrCphHJ6n-22" target="UTohmlkJVf-nrCphHJ6n-27">
          <mxGeometry relative="1" as="geometry" />
        </mxCell>
        <mxCell id="UTohmlkJVf-nrCphHJ6n-22" value="View sửa thông tin&amp;nbsp; cá nhân" style="whiteSpace=wrap;html=1;fontSize=15;strokeColor=#000000;rounded=1;labelBackgroundColor=none;labelBorderColor=none;strokeWidth=1;gradientColor=none;fontStyle=1;" vertex="1" parent="1">
          <mxGeometry x="800" y="200" width="120" height="60" as="geometry" />
        </mxCell>
        <mxCell id="UTohmlkJVf-nrCphHJ6n-23" value="Yes" style="edgeStyle=orthogonalEdgeStyle;rounded=0;orthogonalLoop=1;jettySize=auto;html=1;entryX=0.5;entryY=0;entryDx=0;entryDy=0;labelBackgroundColor=none;fontSize=15;fontColor=#FF0808;" edge="1" parent="1" target="UTohmlkJVf-nrCphHJ6n-29" source="UTohmlkJVf-nrCphHJ6n-25">
          <mxGeometry relative="1" as="geometry">
            <mxPoint x="720" y="710" as="sourcePoint" />
          </mxGeometry>
        </mxCell>
        <mxCell id="UTohmlkJVf-nrCphHJ6n-24" value="No" style="edgeStyle=orthogonalEdgeStyle;rounded=0;orthogonalLoop=1;jettySize=auto;html=1;labelBackgroundColor=none;fontSize=15;fontColor=#FF0808;" edge="1" parent="1" source="UTohmlkJVf-nrCphHJ6n-25" target="UTohmlkJVf-nrCphHJ6n-31">
          <mxGeometry relative="1" as="geometry" />
        </mxCell>
        <mxCell id="UTohmlkJVf-nrCphHJ6n-25" value="Kiểm tra &lt;br&gt;dữ liệu" style="rhombus;whiteSpace=wrap;html=1;rounded=1;labelBackgroundColor=none;labelBorderColor=none;strokeWidth=1;spacing=0;spacingBottom=0;labelPosition=right;verticalLabelPosition=bottom;align=left;verticalAlign=top;spacingTop=-25;fontSize=15;fontStyle=1;strokeColor=#000000;spacingRight=0;spacingLeft=-25;" vertex="1" parent="1">
          <mxGeometry x="800" y="500" width="120" height="60" as="geometry" />
        </mxCell>
        <mxCell id="FETi66UspcrbTtxn0EUh-2" style="edgeStyle=orthogonalEdgeStyle;rounded=0;orthogonalLoop=1;jettySize=auto;html=1;" edge="1" parent="1" source="UTohmlkJVf-nrCphHJ6n-27" target="FETi66UspcrbTtxn0EUh-1">
          <mxGeometry relative="1" as="geometry" />
        </mxCell>
        <mxCell id="UTohmlkJVf-nrCphHJ6n-27" value="Nhập thông tin" style="whiteSpace=wrap;html=1;fontSize=15;strokeColor=#000000;rounded=1;labelBackgroundColor=none;labelBorderColor=none;strokeWidth=1;gradientColor=none;fontStyle=1;" vertex="1" parent="1">
          <mxGeometry x="800" y="300" width="120" height="60" as="geometry" />
        </mxCell>
        <mxCell id="UTohmlkJVf-nrCphHJ6n-28" style="edgeStyle=orthogonalEdgeStyle;rounded=0;orthogonalLoop=1;jettySize=auto;html=1;labelBackgroundColor=none;fontSize=15;fontColor=#FF0808;" edge="1" parent="1" source="UTohmlkJVf-nrCphHJ6n-29" target="UTohmlkJVf-nrCphHJ6n-6">
          <mxGeometry relative="1" as="geometry" />
        </mxCell>
        <mxCell id="UTohmlkJVf-nrCphHJ6n-29" value="Thay đổi thông tin thành công" style="whiteSpace=wrap;html=1;fontSize=15;align=center;verticalAlign=middle;strokeColor=#000000;rounded=1;labelBackgroundColor=none;labelBorderColor=none;strokeWidth=1;spacing=0;spacingBottom=0;spacingTop=0;fontStyle=1;spacingRight=0;spacingLeft=0;fontColor=#000000;fillColor=#FFFFFF;fillStyle=auto;" vertex="1" parent="1">
          <mxGeometry x="800" y="600" width="120" height="60" as="geometry" />
        </mxCell>
        <mxCell id="FETi66UspcrbTtxn0EUh-5" style="edgeStyle=orthogonalEdgeStyle;rounded=0;orthogonalLoop=1;jettySize=auto;html=1;" edge="1" parent="1" source="UTohmlkJVf-nrCphHJ6n-31" target="UTohmlkJVf-nrCphHJ6n-22">
          <mxGeometry relative="1" as="geometry" />
        </mxCell>
        <mxCell id="UTohmlkJVf-nrCphHJ6n-31" value="Thay đổi thông tin thất bại" style="whiteSpace=wrap;html=1;fontSize=15;align=center;verticalAlign=middle;strokeColor=#000000;rounded=1;labelBackgroundColor=none;labelBorderColor=none;strokeWidth=1;spacing=0;spacingBottom=0;spacingTop=0;fontStyle=1;spacingRight=0;spacingLeft=0;" vertex="1" parent="1">
          <mxGeometry x="960" y="200" width="120" height="60" as="geometry" />
        </mxCell>
        <mxCell id="FETi66UspcrbTtxn0EUh-3" style="edgeStyle=orthogonalEdgeStyle;rounded=0;orthogonalLoop=1;jettySize=auto;html=1;" edge="1" parent="1" source="FETi66UspcrbTtxn0EUh-1" target="UTohmlkJVf-nrCphHJ6n-25">
          <mxGeometry relative="1" as="geometry" />
        </mxCell>
        <mxCell id="FETi66UspcrbTtxn0EUh-1" value="Nhấn cập nhật" style="whiteSpace=wrap;html=1;fontSize=15;strokeColor=#000000;rounded=1;labelBackgroundColor=none;labelBorderColor=none;strokeWidth=1;gradientColor=none;fontStyle=1;" vertex="1" parent="1">
          <mxGeometry x="800" y="400" width="120" height="60" as="geometry" />
        </mxCell>
      </root>
    </mxGraphModel>
  </diagram>
  <diagram id="BcacOpIqK2i8UhSN5b6z" name="Trang-5">
    <mxGraphModel dx="1050" dy="581" grid="1" gridSize="10" guides="1" tooltips="1" connect="1" arrows="1" fold="1" page="1" pageScale="1" pageWidth="1169" pageHeight="827" math="0" shadow="0">
      <root>
        <mxCell id="0" />
        <mxCell id="1" parent="0" />
      </root>
    </mxGraphModel>
  </diagram>
</mxfile>
